<svg xmlns="http://www.w3.org/2000/svg" viewBox="0 0 64 64" width="64" height="64">
  <!-- Background circle -->
  <circle cx="32" cy="32" r="30" fill="#1e40af" stroke="#ffffff" stroke-width="2"/>
  
  <!-- Dutch flag colors accent -->
  <circle cx="32" cy="32" r="26" fill="#3b82f6" opacity="0.9"/>
  
  <!-- Building/gemeente icon -->
  <g transform="translate(16, 16)">
    <!-- Building base -->
    <rect x="4" y="20" width="24" height="16" fill="#ffffff" rx="1"/>
    
    <!-- Building roof -->
    <polygon points="2,20 16,8 30,20" fill="#dc2626"/>
    
    <!-- Dutch flag on top -->
    <rect x="14" y="8" width="4" height="8" fill="#ffffff"/>
    <rect x="14" y="8" width="4" height="2.5" fill="#dc2626"/>
    <rect x="14" y="13.5" width="4" height="2.5" fill="#1e40af"/>
    
    <!-- Windows -->
    <rect x="7" y="24" width="3" height="3" fill="#1e40af" rx="0.5"/>
    <rect x="12" y="24" width="3" height="3" fill="#1e40af" rx="0.5"/>
    <rect x="17" y="24" width="3" height="3" fill="#1e40af" rx="0.5"/>
    <rect x="22" y="24" width="3" height="3" fill="#1e40af" rx="0.5"/>
    
    <!-- Door -->
    <rect x="14" y="29" width="4" height="7" fill="#dc2626" rx="2"/>
    <circle cx="17" cy="32" r="0.5" fill="#ffffff"/>
    
    <!-- Chat bubble -->
    <g transform="translate(24, 4)">
      <ellipse cx="4" cy="4" rx="5" ry="4" fill="#ffffff" stroke="#1e40af" stroke-width="1"/>
      <polygon points="2,6 1,8 4,6" fill="#ffffff"/>
      
      <!-- Chat dots -->
      <circle cx="2" cy="4" r="0.5" fill="#1e40af"/>
      <circle cx="4" cy="4" r="0.5" fill="#1e40af"/>
      <circle cx="6" cy="4" r="0.5" fill="#1e40af"/>
    </g>
  </g>
  
  <!-- Optional glow effect -->
  <circle cx="32" cy="32" r="30" fill="none" stroke="#ffffff" stroke-width="1" opacity="0.3"/>
</svg>